<svg width="512" height="512" viewBox="0 0 512 512" fill="none" xmlns="http://www.w3.org/2000/svg">
  <rect width="512" height="512" rx="128" fill="url(#bg)"/>
  <rect x="112" y="120" width="120" height="248" rx="60" fill="#F6F7FA"/>
  <rect x="200" y="72" width="120" height="296" rx="60" fill="#FFFFFF"/>
  <rect x="296" y="168" width="64" height="136" rx="32" fill="#D8DBE2"/>
  <path d="M112 304C112 268.654 140.654 240 176 240H320V304C320 339.346 348.654 368 384 368H388C423.346 368 452 396.654 452 432C452 467.346 423.346 496 388 496H240C169.307 496 112 438.693 112 368V304Z" fill="#FFFFFF"/>
  <defs>
    <linearGradient id="bg" x1="48" y1="36" x2="452" y2="476" gradientUnits="userSpaceOnUse">
      <stop stop-color="#102126"/>
      <stop offset="0.52" stop-color="#0A1518"/>
      <stop offset="1" stop-color="#071013"/>
    </linearGradient>
  </defs>
</svg>
